<?xml version="1.0" encoding="UTF-8"?>
<svg id="Layer_1" data-name="Layer 1" xmlns="http://www.w3.org/2000/svg" xmlns:xlink="http://www.w3.org/1999/xlink" viewBox="0 0 333 157">
  <defs>
    <style>
      .cls-1 {
        clip-path: url(#clippath-21);
      }

      .cls-2 {
        clip-path: url(#clippath-28);
      }

      .cls-2, .cls-3, .cls-4, .cls-5, .cls-6, .cls-7, .cls-8, .cls-9, .cls-10, .cls-11, .cls-12, .cls-13, .cls-14, .cls-15, .cls-16, .cls-17, .cls-18, .cls-19, .cls-20 {
        fill: none;
      }

      .cls-2, .cls-3, .cls-4, .cls-5, .cls-6, .cls-8, .cls-9, .cls-10, .cls-11, .cls-12, .cls-13, .cls-14, .cls-15, .cls-16, .cls-17, .cls-18, .cls-19, .cls-20 {
        clip-rule: evenodd;
      }

      .cls-21 {
        clip-path: url(#clippath-7);
      }

      .cls-22 {
        clip-path: url(#clippath-17);
      }

      .cls-3 {
        clip-path: url(#clippath-8);
      }

      .cls-23 {
        clip-path: url(#clippath-31);
      }

      .cls-24 {
        clip-path: url(#clippath-15);
      }

      .cls-25 {
        clip-path: url(#clippath-33);
      }

      .cls-26 {
        clip-path: url(#clippath-23);
      }

      .cls-4 {
        clip-path: url(#clippath-26);
      }

      .cls-27 {
        clip-path: url(#clippath-9);
      }

      .cls-28 {
        fill: #fff;
      }

      .cls-5 {
        clip-path: url(#clippath-4);
      }

      .cls-29 {
        clip-path: url(#clippath-25);
      }

      .cls-30 {
        clip-path: url(#clippath-27);
      }

      .cls-6 {
        clip-path: url(#clippath-6);
      }

      .cls-31 {
        clip-path: url(#clippath-11);
      }

      .cls-32 {
        clip-path: url(#clippath-35);
      }

      .cls-33 {
        clip-path: url(#clippath-1);
      }

      .cls-8 {
        clip-path: url(#clippath-12);
      }

      .cls-34 {
        clip-path: url(#clippath-5);
      }

      .cls-9 {
        clip-path: url(#clippath-20);
      }

      .cls-35 {
        clip-path: url(#clippath-3);
      }

      .cls-10 {
        clip-path: url(#clippath-18);
      }

      .cls-11 {
        clip-path: url(#clippath-22);
      }

      .cls-12 {
        clip-path: url(#clippath-32);
      }

      .cls-36 {
        clip-path: url(#clippath-19);
      }

      .cls-13 {
        clip-path: url(#clippath-24);
      }

      .cls-14 {
        clip-path: url(#clippath-30);
      }

      .cls-15 {
        clip-path: url(#clippath-2);
      }

      .cls-16 {
        clip-path: url(#clippath-34);
      }

      .cls-17 {
        clip-path: url(#clippath-16);
      }

      .cls-37 {
        clip-path: url(#clippath-29);
      }

      .cls-18 {
        clip-path: url(#clippath-10);
      }

      .cls-38 {
        clip-path: url(#clippath-13);
      }

      .cls-19 {
        clip-path: url(#clippath);
      }

      .cls-20 {
        clip-path: url(#clippath-14);
      }
    </style>
    <clipPath id="clippath">
      <rect class="cls-7" width="333" height="157"/>
    </clipPath>
    <clipPath id="clippath-1">
      <path class="cls-19" d="M118.76,153.97c-22.81-.82-40.53-20.23-40.53-42.94V46.84c0-16.73-12.89-31.17-29.67-31.96-17.86-.84-32.66,13.38-32.66,30.98v100.68c0,.67-.55,1.21-1.22,1.21H6.22c-.67,0-1.22-.54-1.22-1.21V46.97C5,24.25,22.71,4.84,45.53,4.03c23.9-.85,43.61,18.24,43.61,41.83v65.3c0,16.73,12.89,31.17,29.67,31.96,17.86.83,32.66-13.39,32.66-30.98V45.86c0-22.71,18.27-41.26,40.96-41.85.6-.01,1.1.48,1.1,1.08v8.72c0,.57-.46,1.03-1.04,1.05-16.7.55-30.13,14.24-30.13,31v66.28c0,23.59-19.71,42.69-43.61,41.83"/>
    </clipPath>
    <clipPath id="clippath-2">
      <rect class="cls-7" width="333" height="157"/>
    </clipPath>
    <clipPath id="clippath-3">
      <path class="cls-15" d="M307.32,125.67v21.25h4.61v-8.09c0-1.07.25-1.91.76-2.52.5-.62,1.19-.93,2.05-.93.8,0,1.44.26,1.93.77.49.52.73,1.2.73,2.04v8.72h4.61v-9.49c0-1.71-.49-3.08-1.49-4.11-.99-1.03-2.32-1.55-3.98-1.55-1.07,0-2,.22-2.79.66-.79.44-1.4,1.07-1.82,1.88v-8.64h-4.61ZM295.43,146.38c1.19.62,2.58.92,4.16.92s3.12-.33,4.43-.99v-3.81c-.46.35-.99.62-1.6.81-.61.19-1.25.29-1.92.29-1.34,0-2.39-.36-3.15-1.09-.76-.73-1.14-1.71-1.14-2.97s.37-2.25,1.11-2.99c.75-.74,1.77-1.12,3.06-1.12.71,0,1.37.11,1.99.33.62.22,1.17.54,1.65.97v-4.14c-1.16-.55-2.52-.83-4.06-.83-1.66,0-3.11.33-4.36.99-1.25.66-2.22,1.59-2.9,2.8-.68,1.2-1.03,2.6-1.03,4.18s.33,2.86.99,4c.66,1.14,1.58,2.02,2.78,2.64h0ZM280.97,132.18v14.74h4.61v-7.56c0-1.07.27-1.92.83-2.55.55-.64,1.31-.95,2.26-.95.74,0,1.36.19,1.86.55v-4.36c-.4-.11-.82-.16-1.26-.16-.8,0-1.52.19-2.16.56-.64.38-1.14.92-1.5,1.62l-1.14-1.88h-3.49ZM268.52,143.87c-.36-.3-.55-.72-.55-1.26,0-.96.67-1.57,2-1.85l3.15-.66v.66c0,1.07-.29,1.93-.86,2.58-.57.65-1.33.98-2.26.98-.63,0-1.13-.15-1.49-.46h0ZM265.1,146.09c.94.83,2.22,1.24,3.82,1.24,1.05,0,1.98-.19,2.8-.58.82-.39,1.47-.94,1.95-1.66l1.89,1.82h2.09v-9.33c0-1.79-.59-3.2-1.77-4.25-1.18-1.05-2.76-1.57-4.75-1.57-1.85,0-3.39.46-4.64,1.37-1.24.91-1.98,2.15-2.23,3.71h4.21c0-.59.22-1.05.64-1.39.43-.34,1.02-.51,1.76-.51.67,0,1.21.14,1.63.41.42.28.63.64.63,1.08,0,.33-.11.58-.34.76-.23.17-.65.33-1.26.45l-3.55.77c-1.47.31-2.55.82-3.25,1.53-.7.71-1.04,1.64-1.04,2.8,0,1.4.47,2.51,1.42,3.34h0ZM257.59,138.01h-6.87c.15-.87.53-1.55,1.13-2.06.6-.5,1.36-.76,2.28-.76s1.71.25,2.32.76c.61.51.99,1.19,1.14,2.06h0ZM250.1,146.38c1.13.62,2.42.92,3.89.92,1.77,0,3.3-.43,4.58-1.3,1.28-.87,2.19-2.04,2.75-3.53h-4.32c-.29.44-.68.79-1.17,1.03-.49.25-1.06.37-1.69.37-.95,0-1.73-.27-2.33-.81-.6-.54-.97-1.28-1.1-2.22h11.02c.08-.44.12-.94.12-1.49,0-1.55-.31-2.89-.93-4.03-.62-1.14-1.5-2.02-2.63-2.64-1.14-.62-2.44-.92-3.9-.92-1.55,0-2.91.33-4.09.99-1.18.66-2.1,1.59-2.76,2.8-.66,1.2-.99,2.6-.99,4.18s.31,2.86.94,4c.63,1.14,1.51,2.02,2.63,2.64h0ZM235.2,147c.94.2,1.86.3,2.76.3,1.91,0,3.45-.46,4.64-1.38s1.77-2.18,1.77-3.78c0-1.01-.29-1.83-.86-2.44-.57-.62-1.42-1.09-2.55-1.42-.69-.18-1.18-.3-1.49-.36-.94-.2-1.62-.41-2.05-.62-.43-.21-.64-.55-.64-1.01,0-.42.17-.73.51-.91.34-.18.79-.28,1.35-.28.8,0,1.65.17,2.56.5.9.33,1.69.78,2.36,1.35v-4c-.69-.39-1.46-.68-2.33-.88-.87-.2-1.73-.3-2.59-.3-1.83,0-3.3.44-4.41,1.33-1.11.88-1.66,2.12-1.66,3.73,0,2.06,1.14,3.43,3.41,4.11.51.15,1.07.28,1.66.41.88.19,1.52.37,1.93.55.41.19.61.49.61.91,0,.79-.7,1.19-2.09,1.19-.92,0-1.85-.18-2.79-.54-.94-.36-1.84-.87-2.67-1.53v4.2c.76.39,1.62.68,2.56.88h0ZM225.92,138.01h-6.87c.15-.87.53-1.55,1.13-2.06.6-.5,1.36-.76,2.28-.76s1.71.25,2.32.76c.61.51.99,1.19,1.15,2.06h0ZM218.42,146.38c1.13.62,2.42.92,3.89.92,1.77,0,3.3-.43,4.58-1.3,1.28-.87,2.19-2.04,2.75-3.53h-4.32c-.29.44-.68.79-1.17,1.03-.49.25-1.06.37-1.69.37-.96,0-1.73-.27-2.33-.81-.6-.54-.97-1.28-1.1-2.22h11.02c.08-.44.12-.94.12-1.49,0-1.55-.31-2.89-.93-4.03-.62-1.14-1.5-2.02-2.63-2.64-1.14-.62-2.44-.92-3.91-.92-1.55,0-2.91.33-4.09.99-1.18.66-2.1,1.59-2.76,2.8-.66,1.2-.99,2.6-.99,4.18s.31,2.86.94,4c.63,1.14,1.51,2.02,2.63,2.64h0ZM204.95,135.66h-1.86v-5.24h1.94c.86,0,1.55.23,2.07.68.53.45.79,1.07.79,1.86s-.27,1.46-.82,1.96c-.54.5-1.25.74-2.13.74h0ZM198.54,126.94v19.98h4.55v-7.87h.37l5.29,7.87h5.52l-5.98-8.36c1.33-.48,2.38-1.23,3.13-2.25.75-1.02,1.13-2.22,1.13-3.6,0-1.79-.62-3.19-1.86-4.22-1.24-1.03-2.89-1.54-4.95-1.54h-7.21Z"/>
    </clipPath>
    <clipPath id="clippath-4">
      <rect class="cls-7" width="333" height="157"/>
    </clipPath>
    <clipPath id="clippath-5">
      <path class="cls-5" d="M265.67,103.85v14.74h4.59v-8.09c0-1.07.25-1.91.76-2.53.5-.62,1.18-.93,2.04-.93.8,0,1.44.26,1.92.77.48.52.73,1.19.73,2.04v8.72h4.59v-9.5c0-1.71-.49-3.08-1.48-4.11-.99-1.03-2.31-1.55-3.96-1.55-.99,0-1.87.2-2.65.61-.78.4-1.39.98-1.82,1.71l-1.91-1.91h-2.79Z"/>
    </clipPath>
    <clipPath id="clippath-6">
      <rect class="cls-7" width="333" height="157"/>
    </clipPath>
    <clipPath id="clippath-7">
      <path class="cls-6" d="M255.86,103.43c1.98,0,3.55.53,4.73,1.57,1.18,1.05,1.77,2.47,1.77,4.25h0v9.33h-2.08l-1.88-1.82c-.48.72-1.12,1.27-1.94,1.66-.82.39-1.75.58-2.79.58-1.6,0-2.87-.41-3.81-1.24-.94-.83-1.41-1.94-1.41-3.34,0-1.16.35-2.09,1.04-2.8.69-.71,1.77-1.22,3.23-1.53h0l3.54-.77c.61-.13,1.03-.28,1.25-.45.23-.17.34-.43.34-.76,0-.44-.21-.8-.63-1.08-.42-.28-.96-.41-1.62-.41-.74,0-1.33.17-1.75.51-.43.34-.64.81-.64,1.39h-4.19c.25-1.56.99-2.8,2.22-3.71,1.24-.91,2.77-1.37,4.62-1.37h0ZM257.86,111.77l-3.14.66c-1.33.28-2,.89-2,1.85,0,.53.18.95.54,1.26.36.3.85.45,1.48.45.93,0,1.68-.33,2.25-.98.57-.65.86-1.51.86-2.58h0v-.66h0Z"/>
    </clipPath>
    <clipPath id="clippath-8">
      <rect class="cls-7" width="333" height="157"/>
    </clipPath>
    <clipPath id="clippath-9">
      <path class="cls-3" d="M235.39,97.33v7.73c1.12-1.09,2.54-1.63,4.25-1.63,1.37,0,2.58.32,3.63.95,1.06.64,1.87,1.53,2.45,2.69.58,1.16.87,2.49.87,4s-.31,2.94-.94,4.14c-.63,1.19-1.51,2.12-2.64,2.79-1.13.66-2.43.99-3.89.99-.95,0-1.82-.16-2.62-.5-.8-.33-1.47-.8-2.02-1.41h0l-1.51,1.49h-2.14v-21.25h4.56ZM238.73,107.05c-1.04,0-1.88.39-2.51,1.16-.63.77-.94,1.79-.94,3.06s.31,2.28.94,3.02,1.45,1.12,2.48,1.12,1.88-.39,2.51-1.16c.63-.77.94-1.79.94-3.06s-.31-2.28-.94-3.02c-.63-.75-1.45-1.12-2.48-1.12h0Z"/>
    </clipPath>
    <clipPath id="clippath-10">
      <rect class="cls-7" width="333" height="157"/>
    </clipPath>
    <clipPath id="clippath-11">
      <path class="cls-18" d="M219.17,103.85v14.74h4.59v-7.56c0-1.07.28-1.92.83-2.55.55-.64,1.3-.95,2.25-.95.74,0,1.36.19,1.85.55v-4.36c-.4-.11-.82-.16-1.26-.16-.8,0-1.51.19-2.15.57-.64.38-1.14.91-1.5,1.61l-1.14-1.88h-3.48Z"/>
    </clipPath>
    <clipPath id="clippath-12">
      <rect class="cls-7" width="333" height="157"/>
    </clipPath>
    <clipPath id="clippath-13">
      <path class="cls-8" d="M202.48,118.03c1.25.65,2.68.97,4.32.97s3.22-.35,4.53-1.05c1.31-.7,2.33-1.68,3.05-2.95.72-1.27,1.08-2.73,1.08-4.39v-12.01h-4.67l-.03,12.23c0,1.22-.34,2.18-1.01,2.9-.68.72-1.59,1.08-2.75,1.08s-2.07-.35-2.75-1.05c-.68-.7-1.01-1.64-1.01-2.81l-.03-12.34h-4.67v12.47c0,1.6.35,3,1.04,4.2.69,1.2,1.66,2.12,2.91,2.76h0Z"/>
    </clipPath>
    <clipPath id="clippath-14">
      <rect class="cls-7" width="333" height="157"/>
    </clipPath>
    <clipPath id="clippath-15">
      <polygon class="cls-20" points="270.87 74.29 276.62 89.18 281.16 89.18 286.96 74.29 282.78 74.29 279.09 84.33 275.42 74.29 270.87 74.29 270.87 74.29"/>
    </clipPath>
    <clipPath id="clippath-16">
      <rect class="cls-7" width="333" height="157"/>
    </clipPath>
    <clipPath id="clippath-17">
      <path class="cls-17" d="M262.6,73.88c1.46,0,2.75.31,3.88.93,1.13.62,2,1.51,2.62,2.66.62,1.15.92,2.51.92,4.07,0,.56-.04,1.06-.11,1.51h-10.94c.13.95.5,1.69,1.1,2.24.6.55,1.37.82,2.32.82.63,0,1.18-.13,1.68-.38.49-.25.88-.6,1.17-1.04h4.29c-.55,1.5-1.46,2.69-2.73,3.57-1.27.87-2.79,1.31-4.55,1.31-1.46,0-2.75-.31-3.86-.93-1.12-.62-1.99-1.51-2.61-2.66-.63-1.15-.94-2.5-.94-4.04s.33-3,.98-4.22c.65-1.22,1.57-2.16,2.74-2.83,1.17-.67,2.53-1,4.06-1h0ZM262.38,77.33c-.91,0-1.66.26-2.26.77-.6.51-.97,1.2-1.12,2.08h6.82c-.15-.87-.53-1.57-1.14-2.08-.61-.51-1.37-.77-2.3-.77h0Z"/>
    </clipPath>
    <clipPath id="clippath-18">
      <rect class="cls-7" width="333" height="157"/>
    </clipPath>
    <clipPath id="clippath-19">
      <path class="cls-10" d="M244.95,74.02c.42,0,1.02.04,1.82.11.99.11,1.97.17,2.95.17h3.95v3.37h-2.56c.17.5.26,1.03.26,1.59,0,1.08-.29,2.03-.87,2.87-.58.83-1.39,1.48-2.44,1.94-1.05.45-2.26.68-3.63.68-.87,0-1.7-.1-2.5-.31-.11.28-.17.55-.17.81,0,.37.15.64.44.79.29.16.79.26,1.49.29,1.16.07,2.05.12,2.67.14,1.76.06,3.16.39,4.18,1,1.02.61,1.54,1.64,1.54,3.07,0,1.65-.7,2.92-2.09,3.8-1.39.88-3.3,1.32-5.73,1.32-1.08,0-2.15-.09-3.21-.26-1.06-.18-1.97-.42-2.73-.74h0v-3.74c.68.43,1.64.78,2.89,1.06,1.24.28,2.42.42,3.54.42.91,0,1.63-.11,2.17-.32.54-.21.81-.54.81-.99,0-.26-.13-.47-.38-.61s-.68-.25-1.26-.31c-.49-.04-.87-.06-1.14-.06h0l-1.14-.06c-1.71-.09-3.03-.38-3.98-.85-.95-.47-1.42-1.31-1.42-2.52s.49-2.22,1.45-3.2c-.66-.47-1.18-1.04-1.54-1.73-.36-.69-.54-1.46-.54-2.31,0-1.08.29-2.03.87-2.84.58-.82,1.41-1.45,2.49-1.91,1.08-.45,2.35-.68,3.81-.68h0ZM244.61,77.05c-.83,0-1.5.21-1.99.64-.49.43-.74.99-.74,1.7s.24,1.26.72,1.67c.48.41,1.13.61,1.95.61s1.5-.21,1.99-.64c.49-.43.74-.99.74-1.7s-.24-1.26-.73-1.67c-.48-.41-1.13-.61-1.95-.61h0Z"/>
    </clipPath>
    <clipPath id="clippath-20">
      <rect class="cls-7" width="333" height="157"/>
    </clipPath>
    <clipPath id="clippath-21">
      <path class="cls-9" d="M227.95,73.88c1.46,0,2.75.31,3.88.93,1.13.62,2,1.51,2.61,2.66.62,1.15.92,2.51.92,4.07,0,.56-.04,1.06-.11,1.51h-10.94c.13.95.5,1.69,1.09,2.24.6.55,1.37.82,2.32.82.63,0,1.18-.13,1.68-.38.49-.25.88-.6,1.17-1.04h4.29c-.55,1.5-1.46,2.69-2.73,3.57-1.27.87-2.79,1.31-4.55,1.31-1.46,0-2.75-.31-3.87-.93-1.12-.62-1.99-1.51-2.61-2.66-.63-1.15-.94-2.5-.94-4.04s.33-3,.98-4.22c.65-1.22,1.57-2.16,2.74-2.83,1.17-.67,2.53-1,4.06-1h0ZM227.73,77.33c-.91,0-1.66.26-2.26.77-.6.51-.97,1.2-1.12,2.08h6.82c-.15-.87-.53-1.57-1.14-2.08-.61-.51-1.37-.77-2.3-.77h0Z"/>
    </clipPath>
    <clipPath id="clippath-22">
      <rect class="cls-7" width="333" height="157"/>
    </clipPath>
    <clipPath id="clippath-23">
      <polygon class="cls-11" points="202.8 76.11 212.69 89.23 217.04 89.23 217.04 69 212.78 69 212.78 82.18 202.86 69 198.54 69 198.54 89.18 202.8 89.18 202.8 76.11 202.8 76.11"/>
    </clipPath>
    <clipPath id="clippath-24">
      <rect class="cls-7" width="333" height="157"/>
    </clipPath>
    <clipPath id="clippath-25">
      <path class="cls-13" d="M243.83,49.36c1.32,0,1.98.71,1.98,2.13v9.18h4.42l.03-9.26c0-1.84-.45-3.26-1.35-4.25-.9-.99-2.2-1.49-3.9-1.49h-6.43v3.69h5.25Z"/>
    </clipPath>
    <clipPath id="clippath-26">
      <rect class="cls-7" width="333" height="157"/>
    </clipPath>
    <clipPath id="clippath-27">
      <polygon class="cls-4" points="253.69 49.36 253.69 60.67 258.6 60.67 258.6 45.67 251.93 45.67 251.93 49.36 253.69 49.36 253.69 49.36"/>
    </clipPath>
    <clipPath id="clippath-28">
      <rect class="cls-7" width="333" height="157"/>
    </clipPath>
    <clipPath id="clippath-29">
      <path class="cls-2" d="M261.94,56.98v3.69h3.14c1.68,0,2.96-.45,3.86-1.34.9-.89,1.34-2.17,1.34-3.83v-9.84h-8.06v3.69h3.4v5.85c0,1.18-.59,1.78-1.75,1.78h-1.92Z"/>
    </clipPath>
    <clipPath id="clippath-30">
      <rect class="cls-7" width="333" height="157"/>
    </clipPath>
    <clipPath id="clippath-31">
      <path class="cls-14" d="M200.11,58.92c-.84.3-1.92.48-3.24.53v4.53c2.69.1,5.02-.55,7.02-1.93,1.99-1.39,2.99-4.14,2.99-8.26v-6.47h-4.09v6.96c0,1.33-.24,2.36-.71,3.09-.48.73-1.13,1.25-1.97,1.54"/>
    </clipPath>
    <clipPath id="clippath-32">
      <rect class="cls-7" width="333" height="157"/>
    </clipPath>
    <clipPath id="clippath-33">
      <path class="cls-12" d="M215.21,44c1.07,0,2.03.33,2.88,1,.85.66,1.53,1.62,2.05,2.86.52,1.25.82,2.7.92,4.35h3.71c.9,0,1.62-.24,2.18-.73.55-.49.83-1.22.83-2.19s-.14-2.32-.41-3.92h4.06c.31,1.25.47,2.51.47,3.8,0,2.26-.63,4.09-1.89,5.49-1.26,1.4-3.07,2.1-5.45,2.1h-3.98c-.7,2.34-2.11,4.15-4.24,5.44-2.12,1.28-4.73,1.88-7.8,1.78h0v-4.59c2.14.04,3.95-.2,5.41-.71,1.46-.52,2.51-1.24,3.13-2.18h0l-.5-.06c-1.72-.18-3.05-.45-4.01-.82-.95-.37-1.64-.89-2.05-1.56-.41-.67-.61-1.58-.61-2.73,0-1.26.25-2.46.73-3.59.49-1.13,1.13-2.04,1.94-2.72.81-.68,1.68-1.02,2.62-1.02h0ZM215.15,48.44c-.47,0-.9.22-1.3.67-.4.45-.6.93-.6,1.43,0,.43.16.71.47.85.45.21,1.07.4,1.87.57.8.17,1.5.25,2.11.25-.04-.64-.18-1.26-.44-1.84-.25-.58-.56-1.05-.93-1.4-.37-.35-.76-.53-1.17-.53h0Z"/>
    </clipPath>
    <clipPath id="clippath-34">
      <rect class="cls-7" width="333" height="157"/>
    </clipPath>
    <clipPath id="clippath-35">
      <path class="cls-16" d="M231.88,40.5c0,1.38-1.12,2.5-2.5,2.5s-2.5-1.12-2.5-2.5,1.12-2.5,2.5-2.5,2.5,1.12,2.5,2.5"/>
    </clipPath>
  </defs>
  <g class="cls-33">
    <rect class="cls-28" x="4" y="2.17" width="190.53" height="153.65"/>
  </g>
  <g class="cls-35">
    <rect class="cls-28" x="197.54" y="124.67" width="125.46" height="23.67"/>
  </g>
  <g class="cls-34">
    <rect class="cls-28" x="264.67" y="102.43" width="16.62" height="17.15"/>
  </g>
  <g class="cls-21">
    <rect class="cls-28" x="247.45" y="102.43" width="15.91" height="17.57"/>
  </g>
  <g class="cls-27">
    <rect class="cls-28" x="229.83" y="96.33" width="17.76" height="23.67"/>
  </g>
  <g class="cls-31">
    <rect class="cls-28" x="218.17" y="102.54" width="11.52" height="17.04"/>
  </g>
  <g class="cls-38">
    <rect class="cls-28" x="197.54" y="97.6" width="18.93" height="22.4"/>
  </g>
  <g class="cls-24">
    <rect class="cls-28" x="269.87" y="73.29" width="18.09" height="16.88"/>
  </g>
  <g class="cls-22">
    <rect class="cls-28" x="253.81" y="72.88" width="17.21" height="17.69"/>
  </g>
  <g class="cls-36">
    <rect class="cls-28" x="236.79" y="73.02" width="17.89" height="23.65"/>
  </g>
  <g class="cls-1">
    <rect class="cls-28" x="219.17" y="72.88" width="17.2" height="17.69"/>
  </g>
  <g class="cls-26">
    <rect class="cls-28" x="197.54" y="68" width="20.5" height="22.23"/>
  </g>
  <g class="cls-29">
    <rect class="cls-28" x="237.58" y="44.67" width="13.68" height="17"/>
  </g>
  <g class="cls-30">
    <rect class="cls-28" x="250.93" y="44.67" width="8.67" height="17"/>
  </g>
  <g class="cls-37">
    <rect class="cls-28" x="260.94" y="44.67" width="10.34" height="17"/>
  </g>
  <g class="cls-23">
    <rect class="cls-28" x="195.87" y="46.33" width="12.01" height="18.75"/>
  </g>
  <g class="cls-25">
    <rect class="cls-28" x="207.55" y="43" width="25.36" height="22.09"/>
  </g>
  <g class="cls-32">
    <rect class="cls-28" x="225.87" y="37" width="7.01" height="7"/>
  </g>
</svg>